<?xml version="1.0" encoding="utf-8"?>
<!-- Generator: Adobe Illustrator 26.0.1, SVG Export Plug-In . SVG Version: 6.00 Build 0)  -->
<svg version="1.1" xmlns="http://www.w3.org/2000/svg" xmlns:xlink="http://www.w3.org/1999/xlink" x="0px" y="0px"
	 viewBox="0 0 43.2 43.2" style="enable-background:new 0 0 43.2 43.2;" xml:space="preserve">
<style type="text/css">
	.st0{fill:#FFFFFF;}
	.st1{fill:#009444;}
	.st2{fill:#B7D433;}
	.st3{fill:#006838;}
</style>
<g id="Layer_1">
	<path class="st0" d="M36.3,10.9c-4.6-5.3-12.3-7.8-19-6.2C11.3,6,6.9,10.4,5.1,17c-1.3,4.7-0.4,10.2,2.4,14.8
		c2.6,4.2,6.3,7,10.4,7.9c1.3,0.3,2.6,0.4,4,0.4c3.1,0,6.1-0.7,8.9-2.1c3.7-1.9,6.6-5,8.2-8.7l0,0l0-0.1l0,0l0,0l0.1-0.2l0,0
		c0-0.1,0-0.1,0.1-0.2l0,0l0.1-0.3l0,0l0,0l0,0l0,0l0.1-0.2c0,0,0,0,0,0l-0.1-0.1l0.1,0.1c0,0,0,0,0,0l0,0c0.1-0.2,0.2-0.4,0.2-0.6
		l0,0l0.1-0.1h0l0-0.1l0,0C41.5,21.2,40.3,15.4,36.3,10.9z"/>
	<path class="st1" d="M5.5,17.1C3,25.9,8.8,37.3,17.9,39.2C26.6,41,35.7,36.6,38.8,28c0,0.1-0.1,0.1-0.1,0.2c0-0.1,0.1-0.1,0.1-0.2
		c0,0,0,0,0,0c0,0,0,0,0,0C46.7,6.1,12-5.8,5.5,17.1z"/>
</g>
<g id="Layer_2">
	<g>
		<path class="st2" d="M24.2,35.4c-1.3,0.4-3.7,0.3-3.9-1.5c-0.1-1,0.7-2.3,1.7-2.9c0.3-0.2,1.1-0.4,1.8-0.3
			c1.1,0.2,2.1,0.8,2.8,1.6C27.9,33.8,25.4,35.1,24.2,35.4z"/>
		<path class="st2" d="M30.7,30.1c-0.7,0.9-2,1.2-3,0.7c-0.9-0.5-1.4-1.6-1.4-2.7c0.1-1.4,1.4-1.6,1.8-1.6c1,0,1.4,0.1,2,0.5
			C31.1,27.7,31.4,29.2,30.7,30.1z"/>
		<path class="st0" d="M28.2,26.8C28.1,26.8,28.1,26.8,28.2,26.8c-0.5,0.2-0.8,0.4-1,0.7c-0.3,0.4-0.4,0.8-0.3,1
			c0,0.1,0.1,0.1,0.2,0.1h0c0.1,0,0.2,0,0.2-0.1c0.1-0.1,0.1-0.3,0.2-0.4c0-0.1,0.1-0.2,0.1-0.3c0.1-0.2,0.4-0.4,0.6-0.6
			c0.1-0.1,0.2-0.2,0.2-0.3C28.4,26.9,28.3,26.8,28.2,26.8z"/>
		<path class="st0" d="M23.7,31.1c-0.1,0-0.2,0-0.3,0c-1.1,0-2,1-2.3,1.9c0,0.1,0,0.1,0,0.2c0,0.1,0.1,0.1,0.2,0.1
			c0.1,0,0.1,0,0.1-0.1c0.1-0.2,0.3-0.3,0.4-0.5c0.5-0.6,0.9-1.1,1.6-1.1c0.1,0,0.1,0,0.2,0c0,0,0,0,0,0c0.1,0,0.3-0.1,0.3-0.3
			C23.9,31.3,23.8,31.1,23.7,31.1z"/>
		<path class="st2" d="M34.1,14.6c-2.6,0.4-4.8-0.9-5.6-1.5c-0.1,0.4-0.2,0.9-0.3,1.3c0.7,0.5,2.1,1.8,1.9,4.7
			c-0.3,3.8-4.3,4.9-4.3,4.9s0.3,1.9-1.1,3.7c-2.1,2.6-5.7,2-5.7,2s-0.6,3.5-5.1,3.7c-4.4,0.3-5.8-4-3.1-7.1s5.4-1.2,5.4-1.2
			s-0.7-0.8,0.3-3.5c1-2.7,4.8-1.8,4.8-1.8s-0.9-2.5,1.6-4.8c2.3-2.1,4.5-1.1,4.8-0.9c0.1-0.4,0.2-0.8,0.3-1.3c-0.6,0-2.6-0.3-3.5-2
			c-1-2-0.6-3.9,0.8-3.3c1.2,0.5,2.3,3.7,2.7,4.9c0.1-0.5,0.1-1,0.1-1.5c0-0.7-0.2-1.3-0.4-1.9c-0.2-0.6-0.5-1.1-0.6-1.7
			c0-0.1,0.1-0.2,0.2-0.1c0.9,0.9,1.2,2.5,1.3,3.7c0,0.6,0,1.2-0.1,1.7c0.7-0.4,2.3-1.2,4.4-1C35.8,12,36.2,14.2,34.1,14.6z"/>
		<path class="st3" d="M27.8,15.3c-2.7-2.1-7.8,3.5-3.8,5.7c1.5,0.8,3.5,0.3,4.5-1.1c0.5-0.7,0.7-1.7,0.5-2.5
			C28.8,16.5,28.4,15.7,27.8,15.3z"/>
		<path class="st2" d="M27.9,19.1c-0.5,1.3-2,2.1-3.4,1.7c-1.7-0.5-1.9-2.4-0.8-3.7c0.7-0.9,1.6-1.5,2.7-1.5c0.6,0,1.1,0.5,1.2,0.7
			c0.2,0.3,0.4,0.7,0.5,1.1C28.1,17.9,28.1,18.5,27.9,19.1z"/>
		<path class="st0" d="M26.2,16.2L26.2,16.2L26.2,16.2c-1.3,0.2-2.1,1.4-2.3,2.5c0,0.1,0,0.1,0,0.2c0,0,0.1,0.1,0.2,0.1
			c0.1,0,0.1,0,0.2-0.1c0.1-0.2,0.2-0.4,0.3-0.5c0.4-0.7,0.8-1.4,1.6-1.7c0.1,0,0.2-0.1,0.1-0.2C26.4,16.3,26.3,16.2,26.2,16.2z"/>
		<path class="st3" d="M21.3,20.7c-0.9-0.2-2,0.3-2.8,0.9c-1.1,0.9-1.8,2.3-1.7,3.7c0.1,1.6,1.8,2.5,3.3,2.5c1.5,0,2.9-0.9,3.5-2.3
			c0.3-0.8,0.3-1.7,0.1-2.5C23,20.8,21.7,20.7,21.3,20.7z"/>
		<path class="st2" d="M22.8,25.4c-0.7,1.4-2.4,2-3.8,1.4c-3.1-1.2-0.8-5.6,1.8-5.6c1.6,0,2.1,1.3,2.3,2
			C23.3,23.9,23.2,24.7,22.8,25.4z"/>
		<path class="st0" d="M20.8,21.8C20.8,21.8,20.7,21.8,20.8,21.8c-1,0.3-2.3,1.1-2.5,2.4c0,0.1,0,0.1,0,0.2c0,0.1,0.1,0.1,0.2,0.1
			c0.1,0,0.1,0,0.2-0.1c0.6-0.8,1.2-1.6,2.2-2c0.1,0,0.2-0.2,0.2-0.3C21,21.9,20.9,21.8,20.8,21.8z"/>
		<path class="st3" d="M14.9,25.9c-0.7-0.1-1.5-0.1-2.2,0.4c-1.3,0.9-2.5,3-1.6,4.5c1,1.6,3.1,1.5,4.4,0.4c0.8-0.6,1.4-1.8,1.4-2.9
			C16.9,27.7,16.6,26.2,14.9,25.9z"/>
		<path class="st2" d="M15.5,30.3c-1,0.9-2.7,1.3-3.6,0.1c-0.8-1.1,0.2-2.9,1.1-3.6c0.9-0.7,2.6-0.9,3.2,0.2
			C16.9,28,16.4,29.4,15.5,30.3z"/>
		<path class="st0" d="M15,26.7C15,26.7,15,26.7,15,26.7c-1.2,0.3-2.1,1.3-2.4,2.6c0,0.1,0,0.1,0,0.2c0,0.1,0.1,0.1,0.2,0.1
			c0.1,0,0.1,0,0.2-0.1c0.2-0.2,0.3-0.5,0.5-0.7c0.4-0.7,0.8-1.3,1.6-1.6c0.1,0,0.2-0.2,0.2-0.3C15.3,26.8,15.1,26.7,15,26.7z"/>
	</g>
</g>
</svg>
