<svg xmlns="http://www.w3.org/2000/svg" viewBox="0 0 16 16" fill="#000000" id="Eyedropper-Sample--Streamline-Phosphor" height="16" width="16">
  <desc>
    Eyedropper Sample Streamline Icon: https://streamlinehq.com
  </desc>
  <path d="M15.83958125 3.04386875c-0.0089625 -0.7943 -0.34089375 -1.550725 -0.91936875 -2.0951125 -1.1430875 -1.0843 -2.99815 -1.043475 -4.133075 0.0922625l-1.57745625 1.5864375c-0.7738875 -0.7053375 -1.96555625 -0.67765 -2.70585 0.062875L5.76899375 3.42516875c-0.5108625 0.51029375 -0.5108625 1.33824375 0 1.8485375l0.16329375 0.16819375 -4.16409375 4.1641c-0.81551875 0.8091625 -1.14250625 1.9891625 -0.85976875 3.1026625l-0.6531875 1.50315625c-0.18683125 0.42251875 -0.09361875 0.91649375 0.23433125 1.24188125 0.37859375 0.38223125 0.95371875 0.49134375 1.446 0.2743375l1.4313125 -0.6246125c1.09219375 0.2467375 2.234575 -0.08471875 3.02509375 -0.877725l4.1641 -4.1641 0.16819375 0.16819375c0.51010625 0.509775 1.33679375 0.509775 1.8469 0l0.73484375 -0.7348375c0.74188125 -0.74135625 0.7685125 -1.93541875 0.06041875 -2.7091125l1.61256875 -1.62236875c0.56330625 -0.5600125 0.8740625 -1.32540625 0.86058125 -2.11960625ZM5.47015625 13.30715c-0.51223125 0.51329375 -1.26605625 0.70175 -1.959575 0.48989375 -0.14921875 -0.046 -0.30998125 -0.03701875 -0.45315 0.02530625l-1.47785 0.64503125 0.62461875 -1.45335625c0.06480625 -0.1485375 0.07208125 -0.315875 0.0204125 -0.46948125 -0.1408875 -0.415875 -0.1380125 -0.867025 0.0081625 -1.28106875h5.27860625Zm3.34760625 -3.3476125H3.27135l3.59255625 -3.59255625 2.7711625 2.77606875Zm5.2402375 -5.71543125 -2.0714375 2.0836875c-0.2548875 0.25505 -0.2548875 0.66839375 0 0.92345l0.3992625 0.39844375c0.25543125 0.25515 0.25543125 0.669125 0 0.92426875l-0.7348375 0.7348375 -4.95609375 -4.96180625 0.7348375 -0.73484375c0.25505625 -0.25488125 0.6684 -0.25488125 0.92345 0l0.3992625 0.3992625c0.12240625 0.12226875 0.2883125 0.19098125 0.46131875 0.1910625 0.173525 -0.0003 0.3398 -0.069625 0.46213125 -0.19269375l2.03633125 -2.048575c0.637675 -0.63849375 1.6738 -0.6678875 2.30985 -0.06613125 0.6694875 0.63238125 0.6839 1.69298125 0.0318375 2.343325Z" stroke-width="0.0625"></path>
</svg>